<?xml version="1.0" encoding="utf-8"?>
<!-- Generator: Adobe Illustrator 15.1.0, SVG Export Plug-In . SVG Version: 6.00 Build 0)  -->
<!DOCTYPE svg PUBLIC "-//W3C//DTD SVG 1.1//EN" "http://www.w3.org/Graphics/SVG/1.1/DTD/svg11.dtd">
<svg version="1.1" id="Layer_1" xmlns="http://www.w3.org/2000/svg" xmlns:xlink="http://www.w3.org/1999/xlink" x="0px" y="0px"
	 width="64px" height="64px" viewBox="0 0 64 64" enable-background="new 0 0 64 64" xml:space="preserve">
<g transform="translate(0, 0)">
	
		<polyline fill="none" stroke="#8EC750" stroke-width="2" stroke-linecap="round" stroke-linejoin="round" stroke-miterlimit="10" points="
		12,62 2,62 2,48 10,48 	"/>
	
		<polyline fill="none" stroke="#8EC750" stroke-width="2" stroke-linecap="round" stroke-linejoin="round" stroke-miterlimit="10" points="
		52,62 62,62 62,48 54,48 	"/>
	
		<line fill="none" stroke="#2D3142" stroke-width="2" stroke-linecap="round" stroke-linejoin="round" stroke-miterlimit="10" x1="32" y1="14" x2="32" y2="2"/>
	
		<rect x="32" y="4" fill="none" stroke="#2D3142" stroke-width="2" stroke-linecap="round" stroke-linejoin="round" stroke-miterlimit="10" width="8" height="4"/>
	
		<polyline fill="none" stroke="#8EC750" stroke-width="2" stroke-linecap="round" stroke-linejoin="round" stroke-miterlimit="10" points="
		36,62 36,52 28,52 28,62 	"/>
	
		<line fill="none" stroke="#2D3142" stroke-width="2" stroke-linecap="round" stroke-linejoin="round" stroke-miterlimit="10" x1="10" y1="30" x2="54" y2="30"/>
	
		<line fill="none" stroke="#2D3142" stroke-width="2" stroke-linecap="round" stroke-linejoin="round" stroke-miterlimit="10" x1="10" y1="38" x2="54" y2="38"/>
	
		<line fill="none" stroke="#2D3142" stroke-width="2" stroke-linecap="round" stroke-linejoin="round" stroke-miterlimit="10" x1="19" y1="62" x2="19" y2="38"/>
	
		<line fill="none" stroke="#2D3142" stroke-width="2" stroke-linecap="round" stroke-linejoin="round" stroke-miterlimit="10" x1="45" y1="62" x2="45" y2="38"/>
	
		<polygon fill="none" stroke="#2D3142" stroke-width="2" stroke-linecap="round" stroke-linejoin="round" stroke-miterlimit="10" points="
		54,30 54,62 10,62 10,30 32,14 	"/>
	
		<line fill="none" stroke="#2D3142" stroke-width="2" stroke-linecap="round" stroke-linejoin="round" stroke-miterlimit="10" x1="28" y1="45" x2="36" y2="45"/>
</g>
<g>
	<path fill="#8EC750" d="M62,2.917h-9c-0.6,0-1,0.4-1,1v9.2c-0.3-0.101-0.6-0.2-1-0.2c-1.7,0-3,1.3-3,3s1.3,3,3,3s3-1.3,3-3v-8h7
		v3.2c-0.3-0.1-0.6-0.2-1-0.2c-1.7,0-3,1.3-3,3s1.3,3,3,3s3-1.3,3-3v-10C63,3.316,62.6,2.917,62,2.917z"/>
</g>
</svg>
