<svg xmlns="http://www.w3.org/2000/svg" xmlns:xlink="http://www.w3.org/1999/xlink" x="0px" y="0px" width="64px" height="64px" viewBox="0 0 64 64"><g  transform="translate(0, 0)">
<circle data-color="color-2" fill="none" stroke="#8ec750" stroke-width="2" stroke-linecap="round" stroke-miterlimit="10" cx="50" cy="40" r="12" stroke-linejoin="round"/>
<circle data-color="color-2" fill="none" stroke="#8ec750" stroke-width="2" stroke-linecap="round" stroke-miterlimit="10" cx="14" cy="40" r="12" stroke-linejoin="round"/>
<polyline data-cap="butt" fill="none" stroke="#2d3142" stroke-width="2" stroke-miterlimit="10" points="45.5,22 23,22 14,40 31,40 
	45.5,22 " stroke-linejoin="round" stroke-linecap="round"/>
<line data-cap="butt" fill="none" stroke="#2d3142" stroke-width="2" stroke-miterlimit="10" x1="20.8" y1="17" x2="31" y2="40" stroke-linejoin="round" stroke-linecap="round"/>
<path fill="none" stroke="#2d3142" stroke-width="2" stroke-linecap="round" stroke-miterlimit="10" d="M50,40l-6.2-25
	c-0.4-1.8-2-3-3.9-3H34" stroke-linejoin="round"/>
<path data-color="color-2" fill="none" stroke="#8ec750" stroke-width="2" stroke-linecap="round" stroke-miterlimit="10" d="M25.4,17
	h-8.8c-0.9,0-1.6-0.7-1.6-1.6v-1.5c0-1,0.9-1.8,1.9-1.6l8.8,1.5c0.8,0.1,1.4,0.8,1.4,1.6v0C27,16.3,26.3,17,25.4,17z" stroke-linejoin="round"/>
</g></svg>