<svg xmlns="http://www.w3.org/2000/svg" xmlns:xlink="http://www.w3.org/1999/xlink" x="0px" y="0px" width="64px" height="64px" viewBox="0 0 64 64"><g  transform="translate(0, 0)">
<circle fill="none" stroke="#ffffff" stroke-width="2" stroke-linecap="round" stroke-miterlimit="10" cx="51" cy="13" r="6" stroke-linejoin="round"/>
<path fill="none" stroke="#ffffff" stroke-width="2" stroke-linecap="round" stroke-miterlimit="10" d="M61.4552574,26.2761955
	c-0.9316978-1.3310204-2.8113708-1.5912285-4.1891212-0.7301331l-5.8325424,3.6453438l-8.3098145-8.3098145
	c-0.0008545-0.0008545-0.0013428-0.0018311-0.0021973-0.0026855s-0.0018311-0.0013428-0.0026855-0.0021973L32.1210938,9.8789062
	c-1.0546875-1.0556641-2.7265625-1.1748047-3.9208984-0.2792969l-7.9097614,5.9323158
	c-1.1611404,0.8708534-1.6368332,2.4543095-1.0005856,3.7588482c0.8559437,1.7549992,3.0290451,2.2201633,4.5099564,1.1096172
	l5.918457-4.4394531l7.0393677,7.0391846l-8.0846958,8.0842609c-1.075491,1.0754337-1.7977142,2.4909611-1.8778648,4.0097828
	c-0.118578,2.2469635,0.9632111,4.2929268,2.8128414,5.4488029L39.7900391,46.90625l-6.1903648,9.2860222
	c-0.9101677,1.3653183-0.6893768,3.2758636,0.6403847,4.2372322C34.7742424,60.8157005,35.3892441,61,35.9970703,61
	c0.9697266,0,1.9208984-0.46875,2.4990234-1.3359375l8-12c0.449707-0.6748047,0.6074219-1.5029297,0.4365234-2.2958984
	c-0.1704102-0.7929688-0.6547852-1.4824219-1.3427734-1.9121094L33.85355,36.1203651
	c-0.5453224-0.340847-0.6318054-1.1003876-0.177063-1.5551071l7.323391-7.3230095l7.8790283,7.8788452
	C49.4575195,35.7001953,50.2255859,36,51.0009766,36c0.5473633,0,1.0986328-0.1494141,1.5888672-0.4560547l8-5
	C62.0402489,29.6378212,62.4487953,27.6955643,61.4552574,26.2761955z" stroke-linejoin="round"/>
<path fill="none" stroke="#ffffff" stroke-width="2" stroke-linecap="round" stroke-miterlimit="10" d="M18.7578125,41
	l-4.0004883,4H5c-1.6567383,0-3,1.3427734-3,3s1.3432617,3,3,3h11c0.7954102,0,1.5585938-0.3164062,2.1210938-0.8789062
	L23,45.2421875C24.171875,44.0712891,24.171875,42.1708984,23,41C21.8291016,39.828125,19.9287109,39.828125,18.7578125,41z" stroke-linejoin="round"/>
<line data-color="color-2" fill="none" stroke="#ffffff" stroke-width="2" stroke-linecap="round" stroke-miterlimit="10" x1="10" y1="28" x2="20" y2="28" stroke-linejoin="round"/>
<line data-color="color-2" fill="none" stroke="#ffffff" stroke-width="2" stroke-linecap="round" stroke-miterlimit="10" x1="2" y1="36" x2="12" y2="36" stroke-linejoin="round"/>
</g></svg>