<svg xmlns="http://www.w3.org/2000/svg" xmlns:xlink="http://www.w3.org/1999/xlink" x="0px" y="0px" width="64px" height="64px" viewBox="0 0 64 64"><g  transform="translate(0, 0)">
<polyline fill="none" stroke="#ffffff" stroke-width="2" stroke-linecap="round" stroke-miterlimit="10" points="42,34 42,16 
	36,16 36,10 28,10 28,16 22,16 22,40 " stroke-linejoin="round"/>
<line fill="none" stroke="#ffffff" stroke-width="2" stroke-linecap="round" stroke-miterlimit="10" x1="28" y1="62" x2="36" y2="62" stroke-linejoin="round"/>
<line fill="none" stroke="#ffffff" stroke-width="2" stroke-linecap="round" stroke-miterlimit="10" x1="32" y1="2" x2="32" y2="10" stroke-linejoin="round"/>
<rect x="6" y="40" fill="none" stroke="#ffffff" stroke-width="2" stroke-linecap="round" stroke-miterlimit="10" width="22" height="22" stroke-linejoin="round"/>
<rect x="36" y="34" fill="none" stroke="#ffffff" stroke-width="2" stroke-linecap="round" stroke-miterlimit="10" width="22" height="28" stroke-linejoin="round"/>
<line data-color="color-2" fill="none" stroke="#ffffff" stroke-width="2" stroke-linecap="round" stroke-miterlimit="10" x1="42" y1="42" x2="44" y2="42" stroke-linejoin="round"/>
<line data-color="color-2" fill="none" stroke="#ffffff" stroke-width="2" stroke-linecap="round" stroke-miterlimit="10" x1="42" y1="48" x2="44" y2="48" stroke-linejoin="round"/>
<line data-color="color-2" fill="none" stroke="#ffffff" stroke-width="2" stroke-linecap="round" stroke-miterlimit="10" x1="42" y1="54" x2="44" y2="54" stroke-linejoin="round"/>
<line data-color="color-2" fill="none" stroke="#ffffff" stroke-width="2" stroke-linecap="round" stroke-miterlimit="10" x1="50" y1="42" x2="52" y2="42" stroke-linejoin="round"/>
<line data-color="color-2" fill="none" stroke="#ffffff" stroke-width="2" stroke-linecap="round" stroke-miterlimit="10" x1="50" y1="48" x2="52" y2="48" stroke-linejoin="round"/>
<line data-color="color-2" fill="none" stroke="#ffffff" stroke-width="2" stroke-linecap="round" stroke-miterlimit="10" x1="50" y1="54" x2="52" y2="54" stroke-linejoin="round"/>
<line data-color="color-2" fill="none" stroke="#ffffff" stroke-width="2" stroke-linecap="round" stroke-miterlimit="10" x1="20" y1="48" x2="22" y2="48" stroke-linejoin="round"/>
<line data-color="color-2" fill="none" stroke="#ffffff" stroke-width="2" stroke-linecap="round" stroke-miterlimit="10" x1="20" y1="54" x2="22" y2="54" stroke-linejoin="round"/>
<line data-color="color-2" fill="none" stroke="#ffffff" stroke-width="2" stroke-linecap="round" stroke-miterlimit="10" x1="12" y1="48" x2="14" y2="48" stroke-linejoin="round"/>
<line data-color="color-2" fill="none" stroke="#ffffff" stroke-width="2" stroke-linecap="round" stroke-miterlimit="10" x1="12" y1="54" x2="14" y2="54" stroke-linejoin="round"/>
</g></svg>