<?xml version="1.0" encoding="utf-8"?>
<!-- Generator: Adobe Illustrator 15.1.0, SVG Export Plug-In . SVG Version: 6.00 Build 0)  -->
<!DOCTYPE svg PUBLIC "-//W3C//DTD SVG 1.1//EN" "http://www.w3.org/Graphics/SVG/1.1/DTD/svg11.dtd">
<svg version="1.1" id="Layer_1" xmlns="http://www.w3.org/2000/svg" xmlns:xlink="http://www.w3.org/1999/xlink" x="0px" y="0px"
	 width="48px" height="48px" viewBox="0 0 48 48" enable-background="new 0 0 48 48" xml:space="preserve">
<g transform="translate(0, 0)">
	<path fill="none" stroke="#8EC750" stroke-width="2" stroke-linecap="round" stroke-linejoin="round" stroke-miterlimit="10" d="
		M24,11c0-4.971,4.029-9,9-9s9,4.029,9,9s-4.029,11-9,11S24,15.971,24,11z"/>
	<path fill="none" stroke="#8EC750" stroke-width="2" stroke-linecap="round" stroke-linejoin="round" stroke-miterlimit="10" d="
		M43,46h3V34.58c0-2.03-1.01-3.95-2.73-5.03c-1.529-0.96-3.8-1.939-7-2.35C35.28,27.07,34.19,27,33,27c-1.17,0-2.26,0.07-3.27,0.2
		C28.34,27.37,27.1,27.64,26,27.97"/>
	<path fill="none" stroke="#2D3142" stroke-width="2" stroke-linecap="round" stroke-linejoin="round" stroke-miterlimit="10" d="
		M6,23c0-4.418,3.582-8,8-8s8,3.582,8,8s-3.582,9-8,9S6,27.418,6,23z"/>
	<path fill="none" stroke="#2D3142" stroke-width="2" stroke-linecap="round" stroke-linejoin="round" stroke-miterlimit="10" d="
		M23,46H2v-3.51c0-1.62,0.98-3.101,2.49-3.7C6.57,37.96,9.86,37,14,37s7.43,0.96,9.51,1.79c0.57,0.229,1.061,0.58,1.45,1.02"/>
	<path fill="none" stroke="#2D3142" stroke-width="2" stroke-linecap="round" stroke-linejoin="round" stroke-miterlimit="10" d="
		M29.334,35.459c0-2.025,1.642-3.668,3.666-3.668c2.025,0,3.666,1.643,3.666,3.668c0,2.024-1.641,4.125-3.666,4.125
		C30.976,39.584,29.334,37.483,29.334,35.459z"/>
	<path fill="none" stroke="#2D3142" stroke-width="2" stroke-linecap="round" stroke-linejoin="round" stroke-miterlimit="10" d="
		M38.5,44.393c0-0.745-0.448-1.42-1.141-1.698c-0.952-0.381-2.461-0.819-4.359-0.819s-3.405,0.438-4.359,0.819
		c-0.692,0.278-1.141,0.953-1.141,1.698V46h11V44.393z"/>
</g>
</svg>
