<svg xmlns="http://www.w3.org/2000/svg" xmlns:xlink="http://www.w3.org/1999/xlink" x="0px" y="0px" width="64px" height="64px" viewBox="0 0 64 64"><g  transform="translate(0, 0)">
<polyline data-cap="butt" data-color="color-2" fill="none" stroke="#8ec750" stroke-width="2" stroke-miterlimit="10" points="32,51.2 54.5,59.3 
	58,49.6 47.1,45.7 " stroke-linejoin="round" stroke-linecap="round"/>
<polyline data-cap="butt" data-color="color-2" fill="none" stroke="#8ec750" stroke-width="2" stroke-miterlimit="10" points="18.5,35.3 9.5,32 
	6,41.7 16.9,45.6 " stroke-linejoin="round" stroke-linecap="round"/>
<polyline data-cap="butt" data-color="color-2" fill="none" stroke="#8ec750" stroke-width="2" stroke-miterlimit="10" points="45.5,35.3 54.5,32 
	58,41.7 9.5,59.3 6,49.6 25.6,42.5 " stroke-linejoin="round" stroke-linecap="round"/>
<path fill="none" stroke="#2d3142" stroke-width="2" stroke-linecap="round" stroke-miterlimit="10" d="M47,28.4C47,19.9,32,4,32,4
	S17,19.9,17,28.4C17,37,23.7,44,32,44C40.3,44,47,37,47,28.4z" stroke-linejoin="round"/>
<path fill="none" stroke="#2d3142" stroke-width="2" stroke-linecap="round" stroke-miterlimit="10" d="M32,36c-3.9,0-7-3.4-7-7.6
	c0.1-2,3-7,7-12.1c4,5.2,6.9,10.1,7,12.1C39,32.6,35.9,36,32,36z" stroke-linejoin="round"/>
</g></svg>