<svg xmlns="http://www.w3.org/2000/svg" xmlns:xlink="http://www.w3.org/1999/xlink" x="0px" y="0px" width="64px" height="64px" viewBox="0 0 64 64"><g  transform="translate(0, 0)">
<path fill="none" stroke="#2d3142" stroke-width="2" stroke-linecap="round" stroke-miterlimit="10" d="M54.5,36.6l-14-1.1
	c0.5-6.2-2.9-13.8-2.4-20.3C38.8,7,43,1.6,49.2,2.1c5.8,0.5,9.5,6.6,8.7,16.7C57.1,28.5,54.5,36.6,54.5,36.6z" stroke-linejoin="round"/>
<path data-color="color-2" fill="none" stroke="#8ec750" stroke-width="2" stroke-linecap="round" stroke-miterlimit="10" d="M46.1,54
	L46.1,54c-3.9-0.3-6.7-3.7-6.4-7.5l0.2-3l14,1.1l-0.2,3C53.3,51.4,49.9,54.3,46.1,54z" stroke-linejoin="round"/>
<path fill="none" stroke="#2d3142" stroke-width="2" stroke-linecap="round" stroke-miterlimit="10" d="M9.6,44.6l14-1.2
	c-0.5-6.2,2.9-13.8,2.3-20.3C25.2,14.9,21,9.5,14.8,10c-5.8,0.5-9.5,6.6-8.6,16.8C6.9,36.5,9.6,44.6,9.6,44.6z" stroke-linejoin="round"/>
<path data-color="color-2" fill="none" stroke="#8ec750" stroke-width="2" stroke-linecap="round" stroke-miterlimit="10" d="M18.1,61.9
	L18.1,61.9c3.9-0.3,6.7-3.7,6.4-7.6l-0.2-3l-14,1.2l0.2,3C10.8,59.4,14.2,62.3,18.1,61.9z" stroke-linejoin="round"/>
</g></svg>